<svg version="1.1" id="Layer_1" xmlns="http://www.w3.org/2000/svg" xmlns:xlink="http://www.w3.org/1999/xlink" x="0px" y="0px"
	 width="100%" viewBox="0 0 128 128" enable-background="new 0 0 128 128" xml:space="preserve">
<path fill="#000000" opacity="1.000000" stroke="none" 
	d="
M88.000000,129.000000 
	C58.666668,129.000000 29.833334,129.000000 1.000000,129.000000 
	C1.000000,86.333336 1.000000,43.666668 1.000000,1.000000 
	C43.666668,1.000000 86.333336,1.000000 129.000000,1.000000 
	C129.000000,43.666668 129.000000,86.333336 129.000000,129.000000 
	C115.500000,129.000000 102.000000,129.000000 88.000000,129.000000 
M24.576752,106.000000 
	C40.998886,106.000000 57.421024,106.000000 75.560211,106.000000 
	C69.511215,100.569450 73.082581,95.780876 73.958069,90.926613 
	C74.301834,89.020538 80.872749,79.416176 82.763710,79.148712 
	C87.740715,78.444771 92.761208,78.048233 97.541130,77.552422 
	C94.977608,71.412605 88.462532,67.019783 80.859222,67.006973 
	C66.526184,66.982819 52.193062,66.995003 37.859982,67.001801 
	C28.703545,67.006142 21.039339,71.886742 19.221069,80.943352 
	C17.600080,89.017326 18.059555,97.508980 17.590763,106.000000 
	C20.293383,106.000000 21.946562,106.000000 24.576752,106.000000 
M81.979721,40.993031 
	C81.855309,37.358234 82.567375,33.439339 81.447670,30.142580 
	C78.248795,20.724102 72.499161,11.996842 53.994965,14.089231 
	C45.474365,15.052711 38.007797,20.746063 36.274349,32.069954 
	C33.785896,48.325996 43.776909,59.601753 59.372517,59.648186 
	C69.715500,59.678982 78.387321,54.559750 81.979721,40.993031 
M77.879059,87.676750 
	C76.646996,90.936920 75.387474,94.187218 74.208633,97.466530 
	C74.000755,98.044815 73.854309,99.116173 74.145210,99.331932 
	C78.328224,102.434448 76.482590,108.216660 80.854050,112.086761 
	C86.021469,116.661530 91.121140,116.629097 96.707993,116.555916 
	C99.457901,116.519897 103.280602,116.015610 104.700005,114.213051 
	C107.507225,110.648026 110.947762,107.611931 112.320877,102.509460 
	C113.828712,96.906372 111.881264,91.913330 110.012665,88.219971 
	C107.160721,82.582985 100.527023,79.850571 93.832298,79.039787 
	C92.912529,78.928398 91.914413,79.280952 90.978149,79.519226 
	C86.029976,80.778481 81.636078,82.978401 77.879059,87.676750 
z"/>
<path fill="#FFFFFF" opacity="1.000000" stroke="none" 
	d="
M24.088247,106.000000 
	C21.946562,106.000000 20.293383,106.000000 17.590763,106.000000 
	C18.059555,97.508980 17.600080,89.017326 19.221069,80.943352 
	C21.039339,71.886742 28.703545,67.006142 37.859982,67.001801 
	C52.193062,66.995003 66.526184,66.982819 80.859222,67.006973 
	C88.462532,67.019783 94.977608,71.412605 97.541130,77.552422 
	C92.761208,78.048233 87.740715,78.444771 82.763710,79.148712 
	C80.872749,79.416176 74.301834,89.020538 73.958069,90.926613 
	C73.082581,95.780876 69.511215,100.569450 75.560211,106.000000 
	C57.421024,106.000000 40.998886,106.000000 24.088247,106.000000 
z"/>
<path fill="#FFFFFF" opacity="1.000000" stroke="none" 
	d="
M81.838371,41.410744 
	C78.387321,54.559750 69.715500,59.678982 59.372517,59.648186 
	C43.776909,59.601753 33.785896,48.325996 36.274349,32.069954 
	C38.007797,20.746063 45.474365,15.052711 53.994965,14.089231 
	C72.499161,11.996842 78.248795,20.724102 81.447670,30.142580 
	C82.567375,33.439339 81.855309,37.358234 81.838371,41.410744 
z"/>
<path fill="#FFFFFF" opacity="1.000000" stroke="none" 
	d="
M78.132965,87.376511 
	C81.636078,82.978401 86.029976,80.778481 90.978149,79.519226 
	C91.914413,79.280952 92.912529,78.928398 93.832298,79.039787 
	C100.527023,79.850571 107.160721,82.582985 110.012665,88.219971 
	C111.881264,91.913330 113.828712,96.906372 112.320877,102.509460 
	C110.947762,107.611931 107.507225,110.648026 104.700005,114.213051 
	C103.280602,116.015610 99.457901,116.519897 96.707993,116.555916 
	C91.121140,116.629097 86.021469,116.661530 80.854050,112.086761 
	C76.482590,108.216660 78.328224,102.434448 74.145210,99.331932 
	C73.854309,99.116173 74.000755,98.044815 74.208633,97.466530 
	C75.387474,94.187218 76.646996,90.936920 78.132965,87.376511 
z"/>
</svg>