<svg class="svg-icon" style="width: 1em; height: 1em;vertical-align: middle;fill: currentColor;overflow: hidden;" viewBox="0 0 1024 1024" version="1.1" xmlns="http://www.w3.org/2000/svg"><path d="M192 896a42.666667 42.666667 0 0 1-42.666667-42.666667 362.666667 362.666667 0 0 1 362.666667-362.666666 42.666667 42.666667 0 0 1 0 85.333333 277.333333 277.333333 0 0 0-277.333333 277.333333 42.666667 42.666667 0 0 1-42.666667 42.666667z" fill="#FFFFFF" /><path d="M512 576a234.666667 234.666667 0 1 1 234.666667-234.666667 234.666667 234.666667 0 0 1-234.666667 234.666667z m0-384a149.333333 149.333333 0 1 0 149.333333 149.333333 149.333333 149.333333 0 0 0-149.333333-149.333333zM832 693.333333H597.333333a32 32 0 1 1 0-64h157.44l-9.386666-9.386666a32 32 0 0 1 45.226666-45.226667l64 64A32 32 0 0 1 832 693.333333zM661.333333 864a32 32 0 0 1-22.613333-9.386667l-64-64A32 32 0 0 1 597.333333 736h234.666667a32 32 0 0 1 0 64h-157.44l9.386667 9.386667A32 32 0 0 1 661.333333 864z" fill="#FFFFFF" /><path d="M202.666667 501.333333m-42.666667 0a42.666667 42.666667 0 1 0 85.333333 0 42.666667 42.666667 0 1 0-85.333333 0Z" fill="#FFFFFF" /></svg>