<svg version="1.1" id="Layer_1" xmlns="http://www.w3.org/2000/svg" xmlns:xlink="http://www.w3.org/1999/xlink" x="0px" y="0px"
	 width="100%" viewBox="0 0 256 256" enable-background="new 0 0 256 256" xml:space="preserve">
<path fill="#FFFFFF" opacity="1.000000" stroke="none" 
	d="
M257.000000,32.000000 
	C257.000000,101.687561 257.000000,171.375122 256.683594,241.238388 
	C253.474838,247.360107 250.069168,252.856232 243.806839,255.892319 
	C243.714020,255.937302 243.928787,256.616699 244.000000,257.000000 
	C167.645767,257.000000 91.291542,257.000000 14.757181,256.701385 
	C9.027322,252.508820 4.000587,248.207306 2.458938,241.115784 
	C2.428978,240.977966 1.506217,241.034271 1.000000,241.000000 
	C1.000000,171.645767 1.000000,102.291542 1.318074,32.761940 
	C2.088709,31.957975 2.744123,31.392605 2.962757,30.691105 
	C5.414596,22.824230 11.036122,17.516945 18.690557,16.416794 
	C27.261246,15.184955 36.145374,16.133924 45.279968,16.133924 
	C45.279968,30.080996 45.279968,43.491184 45.279968,56.655689 
	C63.755997,56.655689 81.829681,56.655689 100.297226,56.655689 
	C100.297226,42.902615 100.297226,29.492445 100.297226,16.353951 
	C119.773170,16.353951 138.846909,16.353951 158.314240,16.353951 
	C158.314240,30.115932 158.314240,43.526096 158.314240,56.638550 
	C176.790512,56.638550 194.864700,56.638550 213.331772,56.638550 
	C213.331772,42.867855 213.331772,29.458071 213.331772,16.000538 
	C220.065887,16.000538 226.398621,16.000612 232.731354,16.000519 
	C244.559845,16.000345 250.473206,20.014179 255.089172,31.040857 
	C255.298035,31.539772 256.343964,31.688280 257.000000,32.000000 
M221.999969,95.521568 
	C221.999969,92.082962 221.999969,88.644363 221.999969,85.280220 
	C204.034912,85.280220 186.632217,85.280220 169.281143,85.280220 
	C169.281143,97.966370 169.281143,110.370270 169.281143,122.719498 
	C186.966370,122.719498 204.369125,122.719498 221.999969,122.719498 
	C221.999969,113.799271 221.999969,105.158188 221.999969,95.521568 
M211.476929,137.000031 
	C197.383804,137.000031 183.290695,137.000031 169.295258,137.000031 
	C169.295258,149.994370 169.295258,162.398972 169.295258,174.704742 
	C186.995361,174.704742 204.398758,174.704742 221.702805,174.704742 
	C221.702805,162.002319 221.702805,149.597733 221.702805,137.000031 
	C218.426941,137.000031 215.446655,137.000031 211.476929,137.000031 
M221.999969,204.503265 
	C221.999969,199.404480 221.999969,194.305695 221.999969,189.285858 
	C204.023148,189.285858 186.620514,189.285858 169.286560,189.285858 
	C169.286560,201.977661 169.286560,214.381577 169.286560,226.714355 
	C186.977188,226.714355 204.379776,226.714355 221.999969,226.714355 
	C221.999969,219.453690 221.999969,212.477692 221.999969,204.503265 
M88.253838,122.943466 
	C88.253838,110.424889 88.253838,97.906319 88.253838,85.207733 
	C71.519043,85.207733 54.448418,85.207733 37.210716,85.207733 
	C37.210716,97.820183 37.210716,110.224510 37.210716,122.996559 
	C54.041199,122.996559 70.663765,122.996559 88.253838,122.943466 
M154.999969,103.500137 
	C154.999969,97.403008 154.999969,91.305870 154.999969,85.286522 
	C137.355072,85.286522 120.285767,85.286522 103.287125,85.286522 
	C103.287125,97.978912 103.287125,110.382782 103.287125,122.713936 
	C120.644997,122.713936 137.714264,122.713936 154.999969,122.713936 
	C154.999969,116.452553 154.999969,110.476173 154.999969,103.500137 
M37.000042,164.478485 
	C37.000042,167.917130 37.000042,171.355759 37.000042,174.720367 
	C54.631405,174.720367 71.700829,174.720367 88.718979,174.720367 
	C88.718979,162.034302 88.718979,149.630386 88.718979,137.280838 
	C71.367073,137.280838 54.297630,137.280838 37.000042,137.280838 
	C37.000042,146.200790 37.000042,154.841858 37.000042,164.478485 
M131.499969,175.000534 
	C139.264511,175.000534 147.029053,175.000534 154.712753,175.000534 
	C154.712753,162.021225 154.712753,149.617371 154.712753,137.286606 
	C137.354828,137.286606 120.285545,137.286606 103.287201,137.286606 
	C103.287201,149.979080 103.287201,162.382935 103.287201,175.000534 
	C112.548485,175.000534 121.524246,175.000534 131.499969,175.000534 
M88.999962,195.573746 
	C88.999962,193.468674 88.999962,191.363617 88.999962,189.263153 
	C71.404022,189.263153 54.334278,189.263153 37.264732,189.263153 
	C37.264732,201.932129 37.264732,214.336105 37.264732,226.735001 
	C54.600597,226.735001 71.670395,226.735001 88.999962,226.735001 
	C88.999962,216.501236 88.999962,206.530838 88.999962,195.573746 
M154.999969,221.400330 
	C154.999969,210.645401 154.999969,199.890488 154.999969,189.324310 
	C137.281845,189.324310 120.210197,189.324310 103.326630,189.324310 
	C103.326630,202.056717 103.326630,214.462936 103.326630,226.848953 
	C120.605614,226.848953 137.557556,226.848953 154.999969,226.848953 
	C154.999969,225.262360 154.999969,223.819901 154.999969,221.400330 
z"/>
<path fill="#000000" opacity="1.000000" stroke="none" 
	d="
M257.000000,31.531342 
	C256.343964,31.688280 255.298035,31.539772 255.089172,31.040857 
	C250.473206,20.014179 244.559845,16.000345 232.731354,16.000519 
	C226.398621,16.000612 220.065887,16.000538 213.331772,16.000538 
	C213.331772,29.458071 213.331772,42.867855 213.331772,56.638550 
	C194.864700,56.638550 176.790512,56.638550 158.314240,56.638550 
	C158.314240,43.526096 158.314240,30.115932 158.314240,16.353951 
	C138.846909,16.353951 119.773170,16.353951 100.297226,16.353951 
	C100.297226,29.492445 100.297226,42.902615 100.297226,56.655689 
	C81.829681,56.655689 63.755997,56.655689 45.279968,56.655689 
	C45.279968,43.491184 45.279968,30.080996 45.279968,16.133924 
	C36.145374,16.133924 27.261246,15.184955 18.690557,16.416794 
	C11.036122,17.516945 5.414596,22.824230 2.962757,30.691105 
	C2.744123,31.392605 2.088709,31.957975 1.318074,32.293282 
	C1.000000,21.713495 1.000000,11.426991 1.000000,1.000000 
	C22.687380,1.000000 44.375031,1.000000 66.817581,1.283197 
	C65.383736,4.564763 61.645866,7.390021 61.287937,10.592984 
	C60.067043,21.518314 60.036148,32.576626 59.541679,43.798252 
	C69.472046,43.798252 78.540565,43.798252 87.999458,43.798252 
	C87.999458,35.317291 87.790283,27.025005 88.067337,18.748997 
	C88.279213,12.419683 88.057365,6.504114 82.114494,2.516699 
	C81.854263,2.342093 82.028267,1.520316 82.000000,1.000000 
	C114.020897,1.000000 146.041794,1.000000 178.818909,1.295626 
	C175.757126,4.016529 172.440674,7.330679 172.246765,11.790479 
	C171.781769,22.485796 172.096420,33.215012 172.096420,43.666595 
	C181.770233,43.666595 190.828827,43.666595 200.000031,43.666595 
	C200.000031,35.031929 199.862350,26.727135 200.043549,18.429302 
	C200.188843,11.775563 199.366409,5.733923 192.813141,2.113350 
	C192.703766,2.052925 192.930252,1.384634 193.000000,1.000000 
	C214.234604,1.000000 235.469223,1.000000 257.000000,1.000000 
	C257.000000,11.018952 257.000000,21.040819 257.000000,31.531342 
z"/>
<path fill="#FFFFFF" opacity="1.000000" stroke="none" 
	d="
M192.535355,1.000000 
	C192.930252,1.384634 192.703766,2.052925 192.813141,2.113350 
	C199.366409,5.733923 200.188843,11.775563 200.043549,18.429302 
	C199.862350,26.727135 200.000031,35.031929 200.000031,43.666595 
	C190.828827,43.666595 181.770233,43.666595 172.096420,43.666595 
	C172.096420,33.215012 171.781769,22.485796 172.246765,11.790479 
	C172.440674,7.330679 175.757126,4.016529 179.287567,1.295626 
	C183.356903,1.000000 187.713806,1.000000 192.535355,1.000000 
z"/>
<path fill="#FFFFFF" opacity="1.000000" stroke="none" 
	d="
M81.533882,1.000000 
	C82.028267,1.520316 81.854263,2.342093 82.114494,2.516699 
	C88.057365,6.504114 88.279213,12.419683 88.067337,18.748997 
	C87.790283,27.025005 87.999458,35.317291 87.999458,43.798252 
	C78.540565,43.798252 69.472046,43.798252 59.541679,43.798252 
	C60.036148,32.576626 60.067043,21.518314 61.287937,10.592984 
	C61.645866,7.390021 65.383736,4.564763 67.286240,1.283197 
	C71.689255,1.000000 76.378510,1.000000 81.533882,1.000000 
z"/>
<path fill="#000000" opacity="1.000000" stroke="none" 
	d="
M1.000000,241.471207 
	C1.506217,241.034271 2.428978,240.977966 2.458938,241.115784 
	C4.000587,248.207306 9.027322,252.508820 14.288523,256.701385 
	C9.733932,257.000000 5.467864,257.000000 1.000000,257.000000 
	C1.000000,251.981979 1.000000,246.962189 1.000000,241.471207 
z"/>
<path fill="#000000" opacity="1.000000" stroke="none" 
	d="
M244.476654,257.000000 
	C243.928787,256.616699 243.714020,255.937302 243.806839,255.892319 
	C250.069168,252.856232 253.474838,247.360107 256.683594,241.707047 
	C257.000000,246.917587 257.000000,251.835159 257.000000,257.000000 
	C252.987747,257.000000 248.970535,257.000000 244.476654,257.000000 
z"/>
<path fill="#000000" opacity="1.000000" stroke="none" 
	d="
M221.999969,96.019333 
	C221.999969,105.158188 221.999969,113.799271 221.999969,122.719498 
	C204.369125,122.719498 186.966370,122.719498 169.281143,122.719498 
	C169.281143,110.370270 169.281143,97.966370 169.281143,85.280220 
	C186.632217,85.280220 204.034912,85.280220 221.999969,85.280220 
	C221.999969,88.644363 221.999969,92.082962 221.999969,96.019333 
z"/>
<path fill="#000000" opacity="1.000000" stroke="none" 
	d="
M211.971649,137.000031 
	C215.446655,137.000031 218.426941,137.000031 221.702805,137.000031 
	C221.702805,149.597733 221.702805,162.002319 221.702805,174.704742 
	C204.398758,174.704742 186.995361,174.704742 169.295258,174.704742 
	C169.295258,162.398972 169.295258,149.994370 169.295258,137.000031 
	C183.290695,137.000031 197.383804,137.000031 211.971649,137.000031 
z"/>
<path fill="#000000" opacity="1.000000" stroke="none" 
	d="
M221.999969,205.002472 
	C221.999969,212.477692 221.999969,219.453690 221.999969,226.714355 
	C204.379776,226.714355 186.977188,226.714355 169.286560,226.714355 
	C169.286560,214.381577 169.286560,201.977661 169.286560,189.285858 
	C186.620514,189.285858 204.023148,189.285858 221.999969,189.285858 
	C221.999969,194.305695 221.999969,199.404480 221.999969,205.002472 
z"/>
<path fill="#000000" opacity="1.000000" stroke="none" 
	d="
M87.770088,122.970016 
	C70.663765,122.996559 54.041199,122.996559 37.210716,122.996559 
	C37.210716,110.224510 37.210716,97.820183 37.210716,85.207733 
	C54.448418,85.207733 71.519043,85.207733 88.253838,85.207733 
	C88.253838,97.906319 88.253838,110.424889 87.770088,122.970016 
z"/>
<path fill="#000000" opacity="1.000000" stroke="none" 
	d="
M154.999969,103.999962 
	C154.999969,110.476173 154.999969,116.452553 154.999969,122.713936 
	C137.714264,122.713936 120.644997,122.713936 103.287125,122.713936 
	C103.287125,110.382782 103.287125,97.978912 103.287125,85.286522 
	C120.285767,85.286522 137.355072,85.286522 154.999969,85.286522 
	C154.999969,91.305870 154.999969,97.403008 154.999969,103.999962 
z"/>
<path fill="#000000" opacity="1.000000" stroke="none" 
	d="
M37.000042,163.980713 
	C37.000042,154.841858 37.000042,146.200790 37.000042,137.280838 
	C54.297630,137.280838 71.367073,137.280838 88.718979,137.280838 
	C88.718979,149.630386 88.718979,162.034302 88.718979,174.720367 
	C71.700829,174.720367 54.631405,174.720367 37.000042,174.720367 
	C37.000042,171.355759 37.000042,167.917130 37.000042,163.980713 
z"/>
<path fill="#000000" opacity="1.000000" stroke="none" 
	d="
M130.999985,175.000534 
	C121.524246,175.000534 112.548485,175.000534 103.287201,175.000534 
	C103.287201,162.382935 103.287201,149.979080 103.287201,137.286606 
	C120.285545,137.286606 137.354828,137.286606 154.712753,137.286606 
	C154.712753,149.617371 154.712753,162.021225 154.712753,175.000534 
	C147.029053,175.000534 139.264511,175.000534 130.999985,175.000534 
z"/>
<path fill="#000000" opacity="1.000000" stroke="none" 
	d="
M88.999962,196.067108 
	C88.999962,206.530838 88.999962,216.501236 88.999962,226.735001 
	C71.670395,226.735001 54.600597,226.735001 37.264732,226.735001 
	C37.264732,214.336105 37.264732,201.932129 37.264732,189.263153 
	C54.334278,189.263153 71.404022,189.263153 88.999962,189.263153 
	C88.999962,191.363617 88.999962,193.468674 88.999962,196.067108 
z"/>
<path fill="#000000" opacity="1.000000" stroke="none" 
	d="
M154.999969,221.888885 
	C154.999969,223.819901 154.999969,225.262360 154.999969,226.848953 
	C137.557556,226.848953 120.605614,226.848953 103.326630,226.848953 
	C103.326630,214.462936 103.326630,202.056717 103.326630,189.324310 
	C120.210197,189.324310 137.281845,189.324310 154.999969,189.324310 
	C154.999969,199.890488 154.999969,210.645401 154.999969,221.888885 
z"/>
</svg>